<?xml version="1.0" encoding="iso-8859-1"?>
<!-- Generator: Adobe Illustrator 19.0.0, SVG Export Plug-In . SVG Version: 6.00 Build 0)  -->
<svg version="1.1" id="Capa_1" xmlns="http://www.w3.org/2000/svg" xmlns:xlink="http://www.w3.org/1999/xlink" x="0px" y="0px"
	 viewBox="0 0 512 512" style="enable-background:new 0 0 512 512;" xml:space="preserve">
<g>
	<g>
		<path d="M484.856,146.805c26.511-31.902,26.752-81.216,26.746-83.54l-29.947,0.064c0.027,12.697-3.971,47.424-21.693,66.442
			c-28.37-13.485-64.809-15.241-96.351-3.307c-67.077,25.387-93.382,135.544-170.238,159.929
			c-58.242,18.484-122.104,2.529-157.76,7.334c-88.653,11.928-6.672,155.017,189.046,155.009
			C489.242,448.734,557.352,217.323,484.856,146.805z M35.897,343.801c-4.386-6.901-6.21-13.024-5.137-17.239
			c1.594-6.277,47.925-2.813,50.589-2.656c130.737,7.665,164.595-16.239,229.031-104.955c11.266-15.509,22.193-30.546,33.573-42.481
			c7.699,19.101,7.624,25.292,9.737,42.653c15.592-2.921,36.413-7.288,56.031-5.933c6.27,23.122,5.955,35.807,6.768,57.277
			c18.878-6.471,38.181-14.034,60.435-13.411C433.609,451.453,107.968,457.227,35.897,343.801z M481.195,227.281
			c-13.254-0.886-26.83,1.097-37.276,3.371c-2.892-19.838-8.21-35.08-8.5-35.899c-3.442-9.755-0.661-7.272-10.744-9.605
			c-14.408-3.335-33.335-2.107-46.299-0.568c-2.707-9.746-6.547-19.449-10.095-27.437
			C400.051,140.646,487.292,139.544,481.195,227.281z" fill="#626364"/>
	</g>
</g>
<g>
</g>
<g>
</g>
<g>
</g>
<g>
</g>
<g>
</g>
<g>
</g>
<g>
</g>
<g>
</g>
<g>
</g>
<g>
</g>
<g>
</g>
<g>
</g>
<g>
</g>
<g>
</g>
<g>
</g>
</svg>
